<svg version="1.1" id="Layer_1" xmlns="http://www.w3.org/2000/svg" xmlns:xlink="http://www.w3.org/1999/xlink" x="0" y="0" viewBox="0 0 500 500" xml:space="preserve"><style>.st1{clip-path:url(#SVGID_2_);fill:#de6dbe}.st4{fill:#856dde}.st5{fill:#684fc2}.st7{fill:#ffa080}.st8{fill:#d16b4d}.st9{fill:#ffd49c}</style><defs><circle id="SVGID_1_" cx="250" cy="250.18" r="250"/></defs><clipPath id="SVGID_2_"><use xlink:href="#SVGID_1_" overflow="visible"/></clipPath><circle cx="250" cy="250.18" r="250" clip-path="url(#SVGID_2_)" fill="#a5d9d2"/><path class="st1" d="M156.14 158.93c1.13 33.24-35.76 50.99-30.16 86.25 2.98 18.72 17.86 34.91 16.82 53.84-.79 14.39-10.67 26.5-20.53 37.01-9.87 10.51-20.64 21.31-24.03 35.32-8.52 35.22 38.63 56.81 64.31 63.88 65.47 18.04 136.38 15.8 200.57-6.35 13.98-4.82 27.95-10.75 38.86-20.74 19.72-18.05 32.57-46.02 11.09-69.26-10.2-11.03-26.89-18.24-29.09-33.1-2.51-17.02 16.29-30.27 18.09-47.38 1.6-15.29-10.45-28.09-20.07-40.08-10.52-13.1-5.7-35.08-14.57-45.09-8.81-9.96-29.97-4.16-41.67-4.74-56.57-2.86-113.16-5.32-169.62-9.56z"/><path d="M184.13 158.91c-.29-.02-.1 50.11-.61 53.19-4.41 27-20.3 46.41-10.43 75.86 2.35 7 5.79 14.03 5.03 21.38-1.34 12.89-14.39 20.64-22.87 30.43-13.5 15.58-15.5 40.06-4.71 57.63 20.93 34.06 77.43 25.63 111.47 25.63 38.4 0 114.24 15.54 110.43-45.12-.77-12.31 6.2-27.34-4.85-36.44-6.3-5.19-14.73-9.69-15.82-17.78-1.37-10.18 10.01-17.77 11.73-27.89 1.47-8.65-4.34-16.63-9.19-23.94-15.83-23.85-12.03-73.23-13-101.13.01-.02-156.44-11.77-157.18-11.82z" clip-path="url(#SVGID_2_)" fill="#c24ca1"/><g clip-path="url(#SVGID_2_)"><path class="st4" d="M90.78 573.76c7.17-6.58 14.44-13.11 21.95-19.5l-8.94-77.47-43.19-79.22-66.39 143.28c-5.09 10.99-10.31 21.94-15.53 32.91h112.1z"/><path class="st5" d="M416.12 559.65l2.95 14.11h74.39l-33.73-195.23-3.17 6a349.539 349.539 0 00-40.52 171.84l.08 3.28z"/><path d="M414.69 573.76l45.06-195.23c-8.88-16.39-95.97-4.93-146.19-43.41-28.51-21.84-94.09-7.61-112.41 5.58-56.02 40.33-127.36 35.45-140.53 56.87l62.58 176.19h291.49z" fill="#de6dbe"/><path class="st4" d="M414.69 573.76l45.06-195.23c-8.88-16.39-95.97-4.93-146.19-43.41-28.51-21.84-94.09-7.61-112.41 5.58-56.02 40.33-127.36 35.45-140.53 56.87l62.58 176.19h291.49z"/><path class="st5" d="M414.69 573.76l45.06-195.23c-2.66-4.91-12.37-7.32-25.98-9.32-14.89 23.92-34.23 45.27-58.89 62.53-85.94 61.88-197.17 63.65-292.99 25.72l41.31 116.3h291.49z"/><path class="st7" d="M273.64 391.52c1.29-4.45-2.14-9.64-6.73-10.2-4.6-.56-9.17 3.66-8.99 8.29.05-4.59-3.87-8.86-8.45-9.22-4.57-.35-9.1 3.27-9.76 7.81-.64-4.63-3.29-9.34-7.72-10.82-4.43-1.47-10.23 1.92-9.84 6.58 1.57-3.43.4-7.88-2.66-10.09-3.05-2.21-7.65-1.93-10.42.63-1.02-2.95.12-6.17 1.19-9.1 1.07-2.93 2.08-6.23.85-9.1-1.23-2.87-5.83-4.17-7.44-1.49.17-7.7 2.09-14.33 3.11-21.92 1.1-8.21 8.27-87.1 10.74-87.21.03 0 73.9-3.5 73.9-3.5 3.45 18.23 6.89 36.47 10.34 54.7 2.43 12.88 4.82 25.77 7.3 38.65 1.01 5.24 4.13 11.14 4.7 16.09 1.19 10.38-4.57 5.91-7.54 14.97-1.29 3.94-.22 8.54 2.67 11.51-2.66-4-8.37-5.62-12.73-3.6-4.36 2.02-6.83 7.42-5.5 12.04 1.35-4.4-5.01-7.9-9.18-5.95-4.19 1.93-6.19 6.63-7.84 10.93z"/><path class="st8" d="M312.44 353.42c-19.54 19.18-45.42 34.28-71.58 19.35-14.69-8.48-25.69-22.57-34.34-37.8l11-89.29 73.9-3.5 21.02 111.24z"/><circle class="st9" cx="182" cy="235.72" r="25.18"/><circle class="st8" cx="336.17" cy="235.72" r="25.18"/><path class="st7" d="M268.74 130.69c-8.8-2.17-17.75-3.72-27.1-3.75-20.4-.07-49.1 8.13-60.39 26.97-10 16.7-1.16 43.94.23 63.06 2.26 30.92-3.29 63.98 19.62 89.28 11.84 13.08 27.84 22.55 45.3 25.6 22.12 3.86 45.44-2.77 63.13-16.38 8.93-6.87 16.27-15.71 22.16-25.28 6.77-10.98 6.94-26.17 6.94-38.94 2.03-27.8 5.42-55.82 6.11-83.68.5-20.12-1.84-21.2-21.69-23.31-18.74-1.98-36.19-9.1-54.31-13.57z"/><path class="st9" d="M266.53 332.14c-17.52-3.06-33.57-12.56-45.45-25.68-22.99-25.38-17.42-58.55-19.69-89.57l-4.32-59.17c-11.81-.53-20.53-.93-20.53-.93 1.46 20.03 2.93 40.06 4.39 60.09 2.27 31.03-3.3 64.2 19.69 89.57 11.88 13.12 27.93 22.63 45.45 25.68 7.64 1.33 15.41 1.39 23.06.38-.87-.12-1.74-.22-2.6-.37z"/><path class="st8" d="M331.69 181.28c-4.62-3.28-9.82-6-14.2-8.63-22.02-13.23-45.45-31.28-59.37-53.36 5.08 8.05 6.88 35.17 8.74 45.68 3.26 18.41 1.68 32.9 14.43 48.78 12.49 15.57 32.22 25.07 52.19 25.13.27 21.33-3.41 32.97-14.82 51.31-5.89 9.56-13.22 18.4-22.15 25.27-12.59 9.68-28.03 15.81-43.86 17.16 20.2 1.75 40.86-4.82 56.89-17.16 16.57-12.75 30.6-34.47 33.42-55.51 1.74-12.98 1.38-26.09 1.51-39.14.1-9.58 1.34-22.55-3.71-30.56-2.22-3.49-5.46-6.4-9.07-8.97z"/></g><path class="st1" d="M165.73 217.35c19.16 15.36 46.92-36.93 35.12-52.54 9.05 11.98 24.55 18.75 39.49 17.24 14.23-1.44 32.47-28.23 39.23-27.72 7.24.54 8.04 22.03 9.33 27.17 7.52 29.91 39.05 75.01 69.85 37.97 18.87-22.69 9.92-67.77-2.56-91.38-25.67-48.58-72.12-52.64-92.12-55.13-25.35-3.16-55.11 5.11-75.04 20.8-16.22 12.77-26.09 30.72-30.38 50.75-3.4 15.9-6.49 56.79 4.3 70.04.89 1.1 1.82 2.03 2.78 2.8z"/><path d="M206.69 129.01c22.42 7.47 52.32 11.21 63.54-14.95 10.01 40.04 64.66 47.28 89.58 21.8-1.16-2.77-2.36-5.41-3.62-7.78-25.67-48.58-72.12-52.64-92.12-55.13-25.35-3.16-55.11 5.11-75.04 20.8-.86.67-1.62 1.42-2.44 2.12.19 14.59 4.66 27.35 20.1 33.14z" clip-path="url(#SVGID_2_)" fill="#f09cce"/><path d="M344.53 134.18c4.65.03 9.31.07 13.96.08 2.39 0 3.41-2.45 2.52-4.4-5.13-11.27-10.16-22.6-15.28-33.87-1-2.21-4.15-1.31-4.8.63-2.57 7.68-5.38 15.33-7.82 23.07-8.75-9.35-19.02-16.96-30.18-21.82-45.16-19.67-100.47-2.07-125.49 40.31-14.66 24.83-19.83 56.42-14.24 84.67.35 1.79 3.29 1.4 3.19-.43-1.71-31.13 1.57-62.56 20.24-88.67 17.45-24.39 46.33-37.84 76.06-38.06 25.75-.19 50.11 10.16 67.24 28.9-6.75-2.43-13.87-3.87-20.82-5.53-2.51-.6-4.85 2.12-3.43 4.47 5.04 8.32 10.18 16.59 15.27 24.88.98 1.59 3.54 2.2 4.88.63 3.81-4.45 8.95-9.08 12.06-14.3 16.68 24.54 19.08 51.6 13.75 80.25-.63 3.4 3.89 4.59 5.13 1.42 10.49-26.75 3.84-57.82-12.24-82.23zm3.35-18.98c-.82-2.19-1.71-4.36-2.75-6.45-.57-1.15-1.61-1.47-2.59-1.29.38-1.04.76-2.08 1.14-3.11 1.67 3.87 3.33 7.73 5.01 11.6-.24-.31-.51-.56-.81-.75z" fill="#fff"/></svg>