<?xml version="1.0" encoding="utf-8"?>
<!-- Generator: Adobe Illustrator 24.1.0, SVG Export Plug-In . SVG Version: 6.00 Build 0)  -->
<svg version="1.1" id="Layer_1" xmlns="http://www.w3.org/2000/svg" xmlns:xlink="http://www.w3.org/1999/xlink" x="0px" y="0px"
	 viewBox="0 0 500 500" style="enable-background:new 0 0 500 500;" xml:space="preserve">
<style type="text/css">
	.st0{clip-path:url(#SVGID_2_);fill:#A5D9D2;}
	.st1{clip-path:url(#SVGID_2_);fill:#DE6DBE;}
	.st2{clip-path:url(#SVGID_2_);fill:#C24CA1;}
	.st3{clip-path:url(#SVGID_2_);}
	.st4{fill:#856DDE;}
	.st5{fill:#684FC2;}
	.st6{fill:#DE6DBE;}
	.st7{fill:#FFA080;}
	.st8{fill:#D16B4D;}
	.st9{fill:#FFD49C;}
	.st10{clip-path:url(#SVGID_2_);fill:#F09CCE;}
	.st11{fill:#FFFFFF;}
</style>
<g>
	<defs>
		<circle id="SVGID_1_" cx="250" cy="250.18" r="250"/>
	</defs>
	<clipPath id="SVGID_2_">
		<use xlink:href="#SVGID_1_"  style="overflow:visible;"/>
	</clipPath>
	<circle class="st0" cx="250" cy="250.18" r="250"/>
	<path class="st1" d="M156.14,158.93c1.13,33.24-35.76,50.99-30.16,86.25c2.98,18.72,17.86,34.91,16.82,53.84
		c-0.79,14.39-10.67,26.5-20.53,37.01c-9.87,10.51-20.64,21.31-24.03,35.32c-8.52,35.22,38.63,56.81,64.31,63.88
		c65.47,18.04,136.38,15.8,200.57-6.35c13.98-4.82,27.95-10.75,38.86-20.74c19.72-18.05,32.57-46.02,11.09-69.26
		c-10.2-11.03-26.89-18.24-29.09-33.1c-2.51-17.02,16.29-30.27,18.09-47.38c1.6-15.29-10.45-28.09-20.07-40.08
		c-10.52-13.1-5.7-35.08-14.57-45.09c-8.81-9.96-29.97-4.16-41.67-4.74C269.19,165.63,212.6,163.17,156.14,158.93z"/>
	<path class="st2" d="M184.13,158.91c-0.29-0.02-0.1,50.11-0.61,53.19c-4.41,27-20.3,46.41-10.43,75.86
		c2.35,7,5.79,14.03,5.03,21.38c-1.34,12.89-14.39,20.64-22.87,30.43c-13.5,15.58-15.5,40.06-4.71,57.63
		c20.93,34.06,77.43,25.63,111.47,25.63c38.4,0,114.24,15.54,110.43-45.12c-0.77-12.31,6.2-27.34-4.85-36.44
		c-6.3-5.19-14.73-9.69-15.82-17.78c-1.37-10.18,10.01-17.77,11.73-27.89c1.47-8.65-4.34-16.63-9.19-23.94
		c-15.83-23.85-12.03-73.23-13-101.13C341.32,170.71,184.87,158.96,184.13,158.91z"/>
	<g class="st3">
		<path class="st4" d="M90.78,573.76c7.17-6.58,14.44-13.11,21.95-19.5l-8.94-77.47l-43.19-79.22
			c-22.13,47.76-44.26,95.52-66.39,143.28c-5.09,10.99-10.31,21.94-15.53,32.91H90.78z"/>
		<path class="st5" d="M416.12,559.65l2.95,14.11h74.39l-33.73-195.23l-3.17,6c-27.99,52.87-41.94,112.04-40.52,171.84
			L416.12,559.65z"/>
		<g>
			<g>
				<path class="st6" d="M414.69,573.76c19.68-85.27,45.06-195.23,45.06-195.23c-8.88-16.39-95.97-4.93-146.19-43.41
					c-28.51-21.84-94.09-7.61-112.41,5.58c-56.02,40.33-127.36,35.45-140.53,56.87l62.58,176.19H414.69z"/>
			</g>
		</g>
		<g>
			<g>
				<path class="st4" d="M414.69,573.76c19.68-85.27,45.06-195.23,45.06-195.23c-8.88-16.39-95.97-4.93-146.19-43.41
					c-28.51-21.84-94.09-7.61-112.41,5.58c-56.02,40.33-127.36,35.45-140.53,56.87l62.58,176.19H414.69z"/>
			</g>
		</g>
		<g>
			<g>
				<path class="st5" d="M414.69,573.76c19.68-85.27,45.06-195.23,45.06-195.23c-2.66-4.91-12.37-7.32-25.98-9.32
					c-14.89,23.92-34.23,45.27-58.89,62.53c-85.94,61.88-197.17,63.65-292.99,25.72l41.31,116.3H414.69z"/>
			</g>
		</g>
		<g>
			<g>
				<path class="st7" d="M273.64,391.52c1.29-4.45-2.14-9.64-6.73-10.2c-4.6-0.56-9.17,3.66-8.99,8.29
					c0.05-4.59-3.87-8.86-8.45-9.22c-4.57-0.35-9.1,3.27-9.76,7.81c-0.64-4.63-3.29-9.34-7.72-10.82
					c-4.43-1.47-10.23,1.92-9.84,6.58c1.57-3.43,0.4-7.88-2.66-10.09c-3.05-2.21-7.65-1.93-10.42,0.63
					c-1.02-2.95,0.12-6.17,1.19-9.1c1.07-2.93,2.08-6.23,0.85-9.1c-1.23-2.87-5.83-4.17-7.44-1.49c0.17-7.7,2.09-14.33,3.11-21.92
					c1.1-8.21,8.27-87.1,10.74-87.21c0.03,0,73.9-3.5,73.9-3.5c3.45,18.23,6.89,36.47,10.34,54.7c2.43,12.88,4.82,25.77,7.3,38.65
					c1.01,5.24,4.13,11.14,4.7,16.09c1.19,10.38-4.57,5.91-7.54,14.97c-1.29,3.94-0.22,8.54,2.67,11.51c-2.66-4-8.37-5.62-12.73-3.6
					c-4.36,2.02-6.83,7.42-5.5,12.04c1.35-4.4-5.01-7.9-9.18-5.95C277.29,382.52,275.29,387.22,273.64,391.52z"/>
			</g>
		</g>
		<g>
			<g>
				<path class="st8" d="M312.44,353.42c-19.54,19.18-45.42,34.28-71.58,19.35c-14.69-8.48-25.69-22.57-34.34-37.8l11-89.29
					l73.9-3.5L312.44,353.42z"/>
			</g>
		</g>
		<circle class="st9" cx="182" cy="235.72" r="25.18"/>
		<circle class="st8" cx="336.17" cy="235.72" r="25.18"/>
		<path class="st7" d="M268.74,130.69c-8.8-2.17-17.75-3.72-27.1-3.75c-20.4-0.07-49.1,8.13-60.39,26.97
			c-10,16.7-1.16,43.94,0.23,63.06c2.26,30.92-3.29,63.98,19.62,89.28c11.84,13.08,27.84,22.55,45.3,25.6
			c22.12,3.86,45.44-2.77,63.13-16.38c8.93-6.87,16.27-15.71,22.16-25.28c6.77-10.98,6.94-26.17,6.94-38.94
			c2.03-27.8,5.42-55.82,6.11-83.68c0.5-20.12-1.84-21.2-21.69-23.31C304.31,142.28,286.86,135.16,268.74,130.69z"/>
		<g>
			<path class="st9" d="M266.53,332.14c-17.52-3.06-33.57-12.56-45.45-25.68c-22.99-25.38-17.42-58.55-19.69-89.57
				c-1.44-19.72-2.88-39.45-4.32-59.17c-11.81-0.53-20.53-0.93-20.53-0.93c1.46,20.03,2.93,40.06,4.39,60.09
				c2.27,31.03-3.3,64.2,19.69,89.57c11.88,13.12,27.93,22.63,45.45,25.68c7.64,1.33,15.41,1.39,23.06,0.38
				C268.26,332.39,267.39,332.29,266.53,332.14z"/>
		</g>
		<g>
			<path class="st8" d="M331.69,181.28c-4.62-3.28-9.82-6-14.2-8.63c-22.02-13.23-45.45-31.28-59.37-53.36
				c5.08,8.05,6.88,35.17,8.74,45.68c3.26,18.41,1.68,32.9,14.43,48.78c12.49,15.57,32.22,25.07,52.19,25.13
				c0.27,21.33-3.41,32.97-14.82,51.31c-5.89,9.56-13.22,18.4-22.15,25.27c-12.59,9.68-28.03,15.81-43.86,17.16
				c20.2,1.75,40.86-4.82,56.89-17.16c16.57-12.75,30.6-34.47,33.42-55.51c1.74-12.98,1.38-26.09,1.51-39.14
				c0.1-9.58,1.34-22.55-3.71-30.56C338.54,186.76,335.3,183.85,331.69,181.28z"/>
		</g>
	</g>
	<path class="st1" d="M165.73,217.35c19.16,15.36,46.92-36.93,35.12-52.54c9.05,11.98,24.55,18.75,39.49,17.24
		c14.23-1.44,32.47-28.23,39.23-27.72c7.24,0.54,8.04,22.03,9.33,27.17c7.52,29.91,39.05,75.01,69.85,37.97
		c18.87-22.69,9.92-67.77-2.56-91.38c-25.67-48.58-72.12-52.64-92.12-55.13c-25.35-3.16-55.11,5.11-75.04,20.8
		c-16.22,12.77-26.09,30.72-30.38,50.75c-3.4,15.9-6.49,56.79,4.3,70.04C163.84,215.65,164.77,216.58,165.73,217.35z"/>
	<path class="st10" d="M206.69,129.01c22.42,7.47,52.32,11.21,63.54-14.95c10.01,40.04,64.66,47.28,89.58,21.8
		c-1.16-2.77-2.36-5.41-3.62-7.78c-25.67-48.58-72.12-52.64-92.12-55.13c-25.35-3.16-55.11,5.11-75.04,20.8
		c-0.86,0.67-1.62,1.42-2.44,2.12C186.78,110.46,191.25,123.22,206.69,129.01z"/>
</g>
<path class="st11" d="M344.53,134.18c4.65,0.03,9.31,0.07,13.96,0.08c2.39,0,3.41-2.45,2.52-4.4c-5.13-11.27-10.16-22.6-15.28-33.87
	c-1-2.21-4.15-1.31-4.8,0.63c-2.57,7.68-5.38,15.33-7.82,23.07c-8.75-9.35-19.02-16.96-30.18-21.82
	c-45.16-19.67-100.47-2.07-125.49,40.31c-14.66,24.83-19.83,56.42-14.24,84.67c0.35,1.79,3.29,1.4,3.19-0.43
	c-1.71-31.13,1.57-62.56,20.24-88.67c17.45-24.39,46.33-37.84,76.06-38.06c25.75-0.19,50.11,10.16,67.24,28.9
	c-6.75-2.43-13.87-3.87-20.82-5.53c-2.51-0.6-4.85,2.12-3.43,4.47c5.04,8.32,10.18,16.59,15.27,24.88c0.98,1.59,3.54,2.2,4.88,0.63
	c3.81-4.45,8.95-9.08,12.06-14.3c16.68,24.54,19.08,51.6,13.75,80.25c-0.63,3.4,3.89,4.59,5.13,1.42
	C367.26,189.66,360.61,158.59,344.53,134.18z M347.88,115.2c-0.82-2.19-1.71-4.36-2.75-6.45c-0.57-1.15-1.61-1.47-2.59-1.29
	c0.38-1.04,0.76-2.08,1.14-3.11c1.67,3.87,3.33,7.73,5.01,11.6C348.45,115.64,348.18,115.39,347.88,115.2z"/>
</svg>
